<?xml version="1.0" standalone="no"?>
<!DOCTYPE svg PUBLIC "-//W3C//DTD SVG 20010904//EN"
 "http://www.w3.org/TR/2001/REC-SVG-20010904/DTD/svg10.dtd">
<svg version="1.0" xmlns="http://www.w3.org/2000/svg"
 width="512.000000pt" height="512.000000pt" viewBox="0 0 512.000000 512.000000"
 preserveAspectRatio="xMidYMid meet">

<g transform="translate(0.000000,512.000000) scale(0.100000,-0.100000)"
fill="#000000" stroke="none">
<path d="M3310 5085 c-19 -19 -54 -45 -78 -56 -24 -12 -55 -31 -70 -44 -15
-12 -49 -34 -77 -50 -27 -15 -55 -35 -62 -43 -9 -10 -36 -15 -95 -17 -71 -1
-92 -6 -143 -33 -33 -17 -73 -33 -90 -35 -37 -6 -124 -33 -189 -58 -27 -10
-61 -19 -76 -19 -36 0 -120 -29 -149 -52 -13 -10 -31 -18 -39 -18 -13 0 -215
-94 -305 -141 -14 -8 -29 -2 -65 25 -26 19 -60 49 -77 66 -16 17 -61 55 -100
83 -38 29 -77 57 -85 64 -140 114 -473 333 -507 333 -23 0 -14 -32 19 -65 49
-47 98 -154 162 -355 52 -161 49 -151 109 -297 30 -73 51 -130 46 -127 -9 5
-84 104 -107 139 -6 11 -28 53 -48 93 -19 41 -38 71 -41 68 -3 -3 13 -42 35
-88 35 -71 99 -166 182 -268 11 -14 20 -27 20 -30 0 -3 -16 -16 -34 -30 -18
-14 -65 -51 -104 -82 -39 -32 -75 -58 -80 -58 -12 0 -62 -54 -62 -68 0 -6 14
-22 31 -34 49 -36 58 -63 52 -154 -3 -43 0 -120 7 -169 18 -132 15 -192 -10
-250 -30 -70 -42 -133 -47 -257 -4 -107 3 -145 47 -253 5 -11 11 -33 15 -50 6
-30 92 -205 104 -215 4 -3 18 -23 31 -45 28 -48 60 -85 73 -85 6 0 7 18 4 45
-5 37 -4 43 8 38 30 -11 45 17 45 86 l1 66 19 -25 c11 -14 34 -42 51 -63 l31
-38 -79 -82 c-234 -243 -337 -336 -385 -351 -29 -9 -21 -23 23 -40 40 -16 41
-17 25 -41 -9 -13 -16 -33 -16 -44 0 -11 -5 -23 -10 -26 -6 -4 -10 -31 -9 -61
2 -43 7 -58 28 -77 39 -35 78 -57 134 -76 28 -10 56 -26 61 -36 6 -11 42 -60
79 -109 38 -50 78 -108 89 -131 11 -22 31 -54 44 -71 13 -17 42 -67 65 -110
61 -115 60 -114 144 -114 71 0 72 -1 68 -24 -3 -13 0 -27 6 -30 20 -13 6 -193
-19 -251 -5 -11 -11 -32 -14 -47 -4 -15 -19 -42 -34 -60 -16 -18 -38 -54 -49
-79 -12 -25 -28 -51 -37 -58 -9 -8 -16 -17 -16 -22 0 -5 -12 -28 -27 -52 -31
-48 -51 -95 -62 -148 -4 -20 -15 -47 -24 -60 -10 -13 -17 -33 -17 -46 0 -29
-25 -125 -40 -153 -6 -12 -13 -30 -15 -41 -2 -11 -11 -34 -19 -50 -14 -28 -14
-30 1 -27 23 4 103 214 103 268 0 14 9 39 20 55 11 17 20 38 20 48 0 27 31
117 40 117 4 0 10 10 14 23 3 12 20 40 39 62 19 22 40 57 47 79 7 22 20 41 31
43 11 3 19 10 19 17 0 6 9 27 19 47 11 20 22 58 26 85 4 27 10 54 13 59 4 6 5
20 4 32 -2 11 2 24 7 28 6 3 11 18 11 33 l1 27 29 -35 c15 -19 32 -48 36 -65
22 -95 35 -134 69 -209 20 -42 40 -76 45 -76 15 0 12 17 -11 61 -11 23 -38 94
-59 160 -26 80 -51 135 -75 166 -19 25 -35 57 -35 71 0 14 -7 33 -16 43 -17
19 -13 20 146 49 69 13 195 51 272 81 26 11 55 19 65 19 10 0 41 11 68 25 28
13 54 25 59 25 8 0 249 118 301 148 11 6 46 22 78 36 32 14 70 35 84 46 34 26
43 25 43 -5 0 -20 -5 -25 -24 -25 -24 0 -88 -32 -114 -57 -7 -7 -20 -13 -27
-13 -8 0 -38 -13 -68 -30 -30 -16 -67 -30 -81 -30 -44 0 -53 -29 -66 -230 -7
-102 -12 -198 -11 -215 1 -31 -21 -222 -39 -335 -6 -36 -15 -95 -20 -133 -6
-37 -15 -100 -21 -140 -6 -39 -12 -83 -14 -97 -3 -22 -9 -70 -32 -222 -4 -24
-2 -38 5 -38 13 0 20 22 27 80 2 25 9 72 14 105 5 33 15 94 21 135 6 41 15
100 20 130 21 133 32 207 36 240 8 63 24 253 29 345 6 100 24 288 31 323 3 15
12 22 28 22 24 0 111 44 121 61 4 5 17 9 30 9 13 0 27 5 30 10 9 15 81 50 103
50 28 0 52 32 52 71 1 29 8 39 50 70 27 19 76 49 109 65 32 16 64 39 69 51 7
13 22 23 39 25 19 2 29 10 33 28 3 13 21 33 39 44 l33 19 29 -32 c16 -18 36
-47 43 -65 7 -18 27 -48 43 -67 17 -19 42 -52 56 -75 14 -22 39 -56 57 -75 17
-19 33 -45 37 -59 3 -14 14 -34 23 -45 27 -30 120 -212 120 -234 0 -10 6 -34
14 -52 8 -19 17 -54 20 -79 4 -25 11 -54 16 -65 4 -11 16 -65 26 -120 10 -61
24 -106 34 -116 9 -9 22 -32 29 -50 7 -19 23 -56 36 -84 12 -27 26 -63 29 -79
4 -16 19 -43 33 -60 14 -17 37 -56 50 -86 14 -30 33 -66 43 -80 10 -14 21 -43
25 -64 4 -20 18 -49 30 -64 12 -15 26 -38 30 -52 4 -14 22 -48 41 -76 18 -28
38 -63 45 -77 7 -15 16 -27 21 -27 20 0 5 44 -37 104 -24 36 -47 77 -49 92 -3
15 -14 36 -25 48 -10 12 -25 41 -31 66 -7 25 -20 56 -30 70 -9 14 -27 48 -39
75 -12 28 -33 61 -46 75 -13 14 -29 45 -36 70 -7 25 -23 61 -36 80 -13 19 -23
42 -23 51 0 25 -29 89 -40 89 -6 0 -10 14 -10 31 0 17 -6 40 -12 52 -7 12 -22
74 -34 137 -36 186 -42 205 -117 346 -17 34 -39 70 -48 80 -9 11 -20 30 -24
44 -4 14 -25 46 -46 72 -21 26 -39 50 -39 54 0 4 -19 30 -41 56 -23 27 -52 70
-66 96 -13 25 -36 59 -49 75 -24 29 -24 30 -6 41 149 86 312 189 312 198 0 3
16 25 35 48 50 60 49 109 -4 159 -52 48 -97 81 -111 81 -12 0 -6 63 8 85 11
17 32 79 32 96 0 17 -40 59 -57 59 -6 0 -16 6 -22 13 -6 8 -35 20 -65 27 -54
13 -54 13 -59 54 -2 22 -10 55 -17 72 -12 28 -11 34 11 65 13 19 42 54 65 79
22 25 52 65 66 90 37 65 96 218 104 268 8 49 15 52 31 15 6 -16 24 -55 38 -88
46 -104 95 -277 102 -357 10 -132 24 -87 20 65 -7 230 -18 297 -72 419 -45
104 -78 149 -152 209 l-32 26 127 8 c182 12 192 11 249 -24 42 -26 60 -31 114
-31 35 0 87 7 114 15 28 9 79 20 115 26 136 22 145 24 133 32 -6 4 -135 10
-287 14 l-276 6 -45 41 c-41 38 -75 103 -75 143 0 8 -6 29 -13 46 -7 18 -26
70 -42 117 -31 94 -62 167 -80 190 -7 8 -15 27 -19 41 -12 51 -84 143 -149
192 -36 26 -69 47 -75 47 -5 0 -15 6 -21 14 -7 8 -27 22 -46 31 -19 9 -35 19
-35 23 0 4 -16 16 -35 26 -38 21 -40 25 -25 70 30 93 81 333 86 407 8 98 3
105 -53 90 -25 -7 -39 -7 -41 -1 -7 19 -28 10 -62 -25z m50 15 c0 -5 -7 -10
-16 -10 -8 0 -12 5 -9 10 3 6 10 10 16 10 5 0 9 -4 9 -10z m-10 -48 c0 -10
-18 -30 -40 -45 -40 -26 -52 -19 -25 17 8 10 19 15 26 10 8 -4 10 -3 5 4 -4 7
-1 12 8 12 9 0 16 5 16 10 0 6 2 10 5 10 3 0 5 -8 5 -18z m-106 -69 c-4 -16
-22 -57 -40 -93 -18 -36 -35 -77 -38 -93 -8 -34 -81 -90 -108 -81 -15 4 -18 0
-18 -26 0 -17 5 -40 11 -52 15 -29 6 -31 -25 -7 -51 40 -56 27 -56 -163 0
-141 4 -189 21 -258 l20 -86 -35 -63 c-20 -35 -36 -76 -36 -91 0 -32 31 -60
67 -60 22 0 95 38 101 52 2 4 11 8 19 8 9 0 13 3 10 7 -4 3 -2 11 3 18 5 6 11
21 13 33 2 12 6 25 10 28 4 4 7 14 7 22 0 7 9 25 20 39 11 14 18 29 15 33 -5
9 71 209 86 224 6 6 9 5 9 -5 1 -7 24 -30 52 -49 60 -41 78 -69 103 -165 17
-61 20 -117 23 -427 3 -348 3 -358 -19 -420 -12 -35 -30 -71 -39 -82 -17 -18
-18 -17 -25 23 -4 22 -6 43 -6 46 1 3 -6 19 -14 35 -8 16 -15 31 -14 32 0 3
-4 14 -30 81 -5 12 -8 25 -7 28 0 4 -8 16 -18 28 -11 12 -16 21 -12 21 4 0 -2
10 -13 21 -11 12 -35 51 -52 86 -18 36 -48 84 -66 107 -43 53 -136 146 -145
146 -11 0 -10 -39 3 -84 8 -30 8 -41 -2 -47 -10 -6 -11 -13 -2 -31 7 -13 16
-39 21 -58 6 -19 13 -42 16 -51 5 -12 0 -14 -27 -11 -27 3 -43 15 -77 59 -25
30 -75 76 -112 102 -37 27 -64 52 -60 56 4 5 1 5 -6 1 -9 -5 -24 1 -40 17 -15
14 -39 29 -53 32 -15 4 -39 20 -55 36 -36 38 -58 37 -82 -3 -16 -26 -20 -51
-20 -113 0 -44 3 -84 8 -90 4 -5 10 -28 13 -50 3 -22 8 -47 11 -55 9 -26 18
-74 19 -109 2 -34 27 -58 27 -26 0 9 4 14 9 10 5 -3 16 3 23 12 33 44 155 85
289 98 72 7 71 8 119 -77 8 -15 32 -56 53 -92 20 -35 37 -69 37 -75 0 -7 6
-22 14 -34 15 -24 65 -167 73 -206 2 -13 15 -51 28 -84 14 -33 25 -68 25 -77
0 -9 11 -50 25 -91 24 -69 24 -75 8 -86 -9 -7 -23 -13 -30 -13 -7 0 -30 -11
-51 -24 -20 -13 -64 -34 -97 -47 -33 -12 -74 -36 -90 -51 -34 -31 -56 -38 -34
-11 12 14 12 16 -1 11 -8 -4 -87 -37 -175 -73 -233 -97 -336 -126 -454 -126
-82 0 -109 4 -186 31 -128 45 -264 104 -357 156 -44 24 -84 44 -89 44 -5 0 -9
12 -9 27 0 35 -48 132 -77 156 -12 9 -36 35 -53 57 l-31 39 34 63 c34 61 68
183 82 296 7 51 24 68 41 40 4 -6 13 10 20 39 13 53 50 123 64 123 5 0 12 9
15 20 11 34 109 74 185 74 l65 1 3 -57 c4 -68 22 -79 22 -13 0 25 3 45 6 45
15 0 91 -62 109 -89 19 -30 35 -40 35 -23 0 19 -90 122 -105 121 -3 0 -13 4
-22 9 -14 9 -14 16 5 78 19 63 103 238 137 287 13 19 15 19 21 3 4 -11 -2 -34
-16 -58 -38 -68 -21 -161 61 -330 22 -46 51 -101 64 -123 13 -22 34 -58 46
-80 12 -22 31 -49 43 -61 35 -35 60 -67 76 -98 22 -44 70 -72 157 -90 43 -9
86 -21 95 -26 22 -12 75 -13 82 -1 3 5 30 12 60 15 81 11 122 50 132 128 5 39
-22 96 -56 116 -80 47 -100 57 -160 79 -95 35 -108 37 -151 23 l-40 -13 41
-19 c22 -10 40 -25 40 -33 0 -7 14 -23 30 -35 17 -12 30 -28 30 -37 0 -16 -34
-15 -207 3 -50 6 -52 5 -59 -20 -3 -14 -10 -26 -14 -26 -9 0 -25 40 -22 53 1
5 -2 6 -7 3 -15 -9 -53 36 -48 56 3 10 0 16 -5 15 -15 -3 -129 205 -123 223 4
8 3 11 -1 7 -11 -11 -46 73 -46 111 0 17 -4 35 -9 38 -16 10 -9 78 11 104 33
42 23 120 -16 120 -7 0 -26 -28 -43 -62 -17 -35 -43 -86 -58 -113 -31 -55 -54
-109 -72 -170 l-13 -40 -78 2 c-44 1 -82 -2 -85 -7 -4 -6 -13 -10 -21 -10 -24
0 -104 -60 -104 -78 0 -6 -3 -12 -7 -14 -11 -4 -55 -67 -57 -81 -7 -41 -18
-58 -30 -47 -9 7 -11 22 -6 50 4 22 4 40 -1 40 -12 0 -24 -23 -21 -42 2 -10
-2 -18 -7 -18 -6 0 -11 4 -11 9 0 14 -89 85 -97 77 -4 -4 19 -30 51 -59 l58
-52 -10 -85 c-12 -91 -19 -136 -28 -160 -3 -8 -8 -26 -10 -40 -3 -14 -11 -36
-18 -50 -8 -14 -21 -39 -30 -57 -13 -24 -21 -30 -38 -25 -18 4 -20 2 -16 -22
4 -21 -1 -34 -26 -57 -37 -35 -41 -35 -60 -7 -12 16 -19 19 -27 11 -8 -8 -6
-18 6 -37 10 -14 14 -26 11 -26 -4 0 -1 -10 6 -22 7 -13 13 -25 13 -28 1 -3 5
-25 10 -50 5 -25 8 -49 6 -54 -1 -5 1 -16 5 -25 10 -22 13 -51 5 -51 -4 0 -16
19 -27 43 -33 69 -78 151 -91 165 -7 7 -13 19 -14 25 0 7 -3 21 -6 32 -18 75
-25 172 -20 322 4 166 6 174 35 237 31 67 73 129 105 156 9 8 35 50 56 94 21
43 41 72 43 65 4 -11 10 -10 27 5 11 11 21 23 21 28 0 5 7 16 15 24 21 22 19
34 -7 35 -19 0 -17 3 10 12 39 15 52 32 52 70 0 16 4 26 10 22 6 -4 7 1 3 10
-6 18 40 69 51 57 4 -3 4 1 0 11 -4 12 -1 17 10 17 9 0 16 5 16 12 0 27 34 98
47 98 7 0 24 7 37 16 13 8 44 17 68 19 24 2 63 11 86 19 24 9 81 21 127 28 46
6 81 16 78 21 -5 8 -138 1 -154 -9 -5 -3 -17 -7 -26 -9 -10 -2 -57 -12 -105
-22 -49 -11 -93 -24 -100 -31 -7 -7 -18 -12 -25 -12 -6 0 -17 -8 -23 -17 -15
-24 -5 100 11 129 6 11 9 35 7 53 l-4 33 70 6 c39 4 75 11 80 16 6 6 18 10 27
10 10 0 20 6 23 13 7 18 34 -19 47 -65 5 -21 14 -38 20 -38 14 0 8 70 -7 94
-12 17 -8 22 33 44 25 13 60 32 77 43 17 10 46 26 64 35 17 9 32 19 32 23 0 3
15 13 33 20 17 8 37 20 43 25 6 6 37 34 69 61 31 28 64 58 73 67 15 16 17 16
44 -4 24 -16 40 -19 84 -16 46 4 60 10 92 41 36 35 41 37 108 37 102 0 104
-11 34 -170 -30 -69 -75 -161 -99 -204 -40 -71 -66 -166 -46 -166 16 0 37 31
27 43 -10 13 9 72 20 62 3 -4 5 2 5 12 -1 10 4 17 11 15 8 -1 11 2 8 7 -8 13
58 144 68 134 4 -4 4 0 1 8 -3 9 21 73 55 146 33 71 60 138 61 149 0 11 5 5
12 -15 20 -57 37 -51 37 13 0 31 5 56 10 56 6 0 20 11 32 25 12 14 29 25 38
25 8 0 23 9 33 20 9 11 24 20 32 20 8 0 15 5 15 10 0 6 5 10 11 10 5 0 7 -5 3
-12 -4 -7 -3 -8 5 -4 6 4 9 11 6 16 -8 12 23 33 40 26 8 -3 14 -2 14 2 -3 15
1 22 11 22 6 0 8 -11 4 -27z m-2004 -104 c0 -5 4 -7 10 -4 10 6 70 -24 70 -36
0 -4 31 -28 69 -52 38 -25 101 -82 142 -128 41 -45 103 -112 137 -148 64 -66
99 -118 87 -129 -8 -8 -48 37 -85 96 -17 27 -52 67 -78 88 -26 21 -53 46 -60
56 -7 10 -18 18 -23 18 -17 0 14 -36 72 -84 31 -26 68 -68 83 -96 15 -28 43
-63 62 -78 40 -32 43 -59 18 -155 -8 -34 -14 -85 -12 -114 3 -52 3 -53 -14
-30 -30 39 -156 275 -157 295 -1 6 -5 12 -10 12 -9 0 -94 140 -111 185 -6 17
-16 53 -21 80 -9 52 -38 115 -51 115 -12 0 -9 -24 6 -45 7 -11 16 -38 20 -60
16 -89 50 -162 136 -285 6 -8 24 -42 41 -75 41 -80 71 -136 114 -207 19 -33
35 -62 35 -66 -1 -4 -16 -24 -35 -45 l-34 -39 -28 44 c-15 23 -33 54 -40 68
-7 14 -33 57 -58 95 -71 108 -97 171 -105 256 -7 66 -15 120 -34 219 -10 54
-39 116 -84 176 -25 35 -48 61 -51 58 -2 -2 10 -23 28 -47 72 -96 99 -176 115
-352 l5 -50 -28 70 c-16 39 -48 129 -71 200 -24 72 -51 147 -62 168 -10 20
-14 37 -8 37 5 0 10 -5 10 -11z m1725 -24 c0 -5 -31 -11 -70 -13 -45 -2 -66 0
-60 7 21 20 130 25 130 6z m-46 -57 c-6 -18 -13 -40 -15 -48 -4 -10 -8 -7 -17
10 -11 23 -19 25 -75 25 -34 0 -62 3 -62 6 0 22 44 34 137 37 l42 2 -10 -32z
m60 5 c0 -25 -1 -26 -9 -8 -12 27 -12 35 0 35 6 0 10 -12 9 -27z m-259 -13
c-8 -5 -26 -9 -40 -9 -23 0 -23 1 -5 9 11 5 29 9 40 9 17 1 17 -1 5 -9z m-50
-60 c-28 -24 -44 -30 -85 -30 -28 0 -56 5 -63 12 -9 9 2 16 50 29 35 9 79 17
98 17 l35 1 -35 -29z m460 -30 c-6 -11 -16 -17 -25 -13 -13 5 -13 7 2 19 26
19 35 17 23 -6z m-727 -29 c-26 -21 -59 -49 -74 -62 -14 -13 -38 -31 -55 -39
-16 -8 -37 -22 -46 -30 -9 -8 -43 -28 -75 -45 -32 -16 -70 -37 -85 -47 -35
-24 -45 -23 -51 9 -6 30 21 58 63 66 14 3 42 19 62 35 21 16 51 35 68 42 16 7
30 16 30 20 0 12 68 50 89 50 9 0 21 4 27 9 8 8 65 28 87 30 5 1 -13 -16 -40
-38z m-188 -51 c-3 -5 -11 -10 -16 -10 -6 0 -29 -13 -52 -29 -23 -16 -65 -39
-92 -52 -68 -31 -70 -35 -47 -99 3 -8 -13 3 -35 24 l-41 40 76 36 c96 45 118
56 162 81 39 21 54 24 45 9z m855 -60 c17 -31 11 -171 -11 -275 -11 -54 -23
-103 -26 -109 -17 -26 -32 101 -33 267 l0 178 30 -21 c17 -12 35 -30 40 -40z
m-1190 -61 c0 -11 -13 -34 -30 -52 l-29 -32 14 48 c8 26 17 52 20 58 9 14 25
1 25 -22z m79 -51 l33 -33 -43 -19 c-24 -11 -66 -21 -94 -23 l-50 -5 30 21
c17 12 36 21 43 21 6 0 12 10 12 23 0 22 16 47 30 47 3 0 21 -15 39 -32z
m-569 -398 c-6 -10 -16 -23 -23 -27 -31 -19 -64 -97 -66 -159 -1 -19 -5 -17
-41 17 -22 21 -40 43 -40 48 0 8 167 141 177 141 2 0 -1 -9 -7 -20z m1312
-224 c110 -71 193 -136 227 -176 23 -28 36 -50 29 -51 -22 0 -141 -18 -188
-27 -51 -10 -100 -33 -119 -56 -8 -9 -20 -16 -27 -16 -8 0 -14 -5 -14 -12 0
-14 -13 -2 -16 15 -1 7 -14 71 -29 142 -28 133 -29 203 -4 243 13 21 6 25 141
-62z m-1052 67 c-1 -19 -19 -33 -50 -39 l-35 -6 35 25 c36 27 50 32 50 20z
m2238 -38 c-3 -3 -9 2 -12 12 -6 14 -5 15 5 6 7 -7 10 -15 7 -18z m-773 -96
l20 -24 -25 20 c-32 24 -79 77 -80 88 0 9 48 -39 85 -84z m-1540 53 c-3 -3
-15 -6 -27 -7 -20 -2 -20 -1 -3 11 17 13 43 9 30 -4z m2846 -213 c11 -7 9 -9
-8 -10 -29 -2 -30 -2 -76 -18 -45 -15 -173 -10 -170 7 2 7 -4 9 -14 5 -11 -4
-14 -3 -9 5 4 8 2 10 -7 6 -8 -3 -18 0 -22 6 -8 13 284 13 306 -1z m-1363 -38
c13 -10 22 -30 22 -45 0 -15 5 -37 11 -49 21 -40 -8 -3 -39 50 -17 28 -28 54
-25 57 8 8 7 9 31 -13z m203 -28 c13 -16 12 -17 -3 -4 -17 13 -22 21 -14 21 2
0 10 -8 17 -17z m550 -20 c13 -16 12 -17 -3 -4 -10 7 -18 15 -18 17 0 8 8 3
21 -13z m-691 -31 c0 -15 -2 -15 -10 -2 -13 20 -13 33 0 25 6 -3 10 -14 10
-23z m50 -108 c0 -6 9 -19 20 -29 11 -10 20 -24 20 -32 0 -7 4 -13 8 -13 9 0
42 -64 42 -82 0 -6 7 -20 17 -30 9 -10 14 -20 11 -23 -2 -3 -22 17 -44 45 -21
27 -51 64 -66 81 -15 18 -25 36 -22 40 3 5 0 9 -5 9 -6 0 -10 3 -10 8 1 4 0 9
-1 12 -1 3 -3 14 -5 25 -2 11 -7 34 -10 50 -6 29 -5 28 19 -10 14 -22 26 -45
26 -51z m-1878 -245 c-2 -88 0 -168 4 -177 4 -10 6 -31 5 -48 -1 -18 2 -35 8
-39 6 -3 11 -14 11 -23 0 -16 26 -67 108 -210 51 -90 63 -122 60 -156 l-3 -31
-35 54 c-59 91 -119 204 -131 246 -7 22 -25 79 -41 127 -27 79 -29 96 -25 185
6 123 25 233 40 233 1 0 1 -72 -1 -161z m1521 129 c127 1 238 -2 246 -7 20
-13 5 -66 -30 -100 -26 -26 -38 -30 -115 -36 -128 -11 -284 22 -323 68 -8 10
-9 17 -1 22 17 11 11 25 -11 25 -15 0 -19 4 -15 16 3 9 7 21 7 27 1 7 3 5 5
-3 4 -13 37 -15 237 -12z m496 -178 c63 -106 131 -252 132 -285 1 -16 4 -41 8
-55 6 -23 3 -26 -39 -37 -25 -6 -45 -11 -46 -10 -1 1 -4 14 -7 28 -6 22 -1 29
34 48 28 16 38 26 30 34 -7 7 -14 7 -23 0 -14 -12 -58 -22 -55 -13 1 3 -6 18
-16 33 -9 15 -15 27 -12 27 2 0 0 12 -6 28 -6 15 -12 36 -15 46 -2 10 -8 34
-14 52 -6 19 -9 38 -5 44 4 6 1 9 -6 8 -8 -2 -21 27 -35 77 -12 44 -25 89 -29
100 -11 34 62 -55 104 -125z m-1769 -242 l0 -53 -27 28 -28 27 25 24 c14 14
26 25 28 25 1 1 2 -23 2 -51z m0 -101 c0 -15 -5 -12 -23 14 -39 59 -41 65 -9
35 18 -17 32 -39 32 -49z m2000 -34 c0 -10 -6 -10 -25 -1 -22 10 -25 17 -24
62 l1 51 24 -50 c13 -27 24 -56 24 -62z m-1994 -116 c-4 -45 -9 -83 -12 -86
-12 -12 -29 25 -35 77 -4 31 -9 66 -12 77 -2 11 -8 45 -12 75 l-7 55 42 -59
43 -58 -7 -81z m116 75 c53 -25 58 -30 58 -59 0 -17 -4 -35 -10 -38 -6 -4 -10
7 -10 25 0 20 -4 29 -11 24 -6 -3 -9 -22 -7 -40 5 -42 -3 -43 -37 -1 -63 77
-85 111 -85 134 l0 24 22 -21 c12 -11 48 -33 80 -48z m1808 0 c0 -16 -7 -51
-15 -78 -8 -27 -15 -63 -15 -80 0 -16 -7 -39 -15 -50 -13 -18 -14 -17 -15 17
0 19 -9 70 -20 113 -12 43 -19 80 -18 82 9 8 55 23 76 23 18 1 22 -4 22 -27z
m-591 -146 c-11 -19 -19 -38 -18 -42 3 -11 -19 -88 -36 -129 -24 -58 -27 -105
-9 -133 17 -26 17 -26 0 -12 -17 13 -18 11 -13 -35 3 -28 10 -70 15 -95 6 -25
7 -49 3 -53 -17 -17 -219 -83 -296 -96 -22 -4 -50 -13 -62 -19 -12 -7 -33 -12
-47 -12 -14 0 -28 -4 -31 -10 -3 -5 -16 -10 -29 -10 -12 0 -26 -4 -31 -9 -6
-5 -45 -12 -89 -16 -91 -8 -92 -2 -12 50 28 18 62 45 76 60 14 15 43 36 65 47
79 41 85 79 20 123 l-45 30 0 123 c0 138 -9 126 92 122 25 -1 67 6 92 14 25 8
57 18 72 20 22 4 184 68 269 106 33 15 35 11 14 -24z m221 -61 c19 -19 32 -35
29 -35 -3 0 -20 16 -39 35 -19 19 -32 35 -29 35 3 0 20 -16 39 -35z m120 -100
c13 -14 21 -25 18 -25 -2 0 -15 11 -28 25 -13 14 -21 25 -18 25 2 0 15 -11 28
-25z m561 -12 c13 -16 12 -17 -3 -4 -17 13 -22 21 -14 21 2 0 10 -8 17 -17z
m-2296 -50 c-9 -16 -26 -56 -38 -91 -13 -35 -27 -62 -32 -60 -6 2 -9 11 -8 21
2 9 -2 17 -7 17 -6 0 -10 -6 -10 -14 0 -9 -8 -12 -26 -8 -25 4 -23 8 52 83 43
44 80 79 82 79 2 0 -4 -12 -13 -27z m490 17 c3 -6 -1 -7 -9 -4 -18 7 -21 14
-7 14 6 0 13 -4 16 -10z m1345 -10 c-6 -11 -15 -20 -21 -20 -6 0 -7 -5 -4 -10
4 -6 1 -9 -7 -8 -7 2 -12 -2 -11 -8 1 -6 -5 -11 -13 -11 -9 0 -1 15 23 39 42
43 48 47 33 18z m525 0 c10 -11 16 -20 13 -20 -3 0 -13 9 -23 20 -10 11 -16
20 -13 20 3 0 13 -9 23 -20z m-645 -113 c0 -1 -30 -32 -67 -67 l-68 -65 65 68
c60 62 70 72 70 64z m-1824 -58 c3 -6 2 -21 -3 -32 -6 -12 -18 -39 -27 -61
-17 -38 -17 -38 -39 -20 -12 10 -24 20 -26 21 -2 2 1 13 7 26 6 12 16 34 22
50 7 19 16 27 34 27 14 0 28 -5 32 -11z m1633 -95 c-57 -58 -106 -107 -108
-108 -5 -2 -31 87 -26 92 5 5 229 121 234 122 3 0 -42 -48 -100 -106z m-1599
58 c0 -16 -7 -52 -16 -81 -15 -51 -16 -52 -34 -36 -17 15 -17 20 -5 48 7 18
19 47 25 65 15 39 30 42 30 4z m-130 2 c0 -22 -22 -42 -41 -37 l-22 6 22 19
c23 18 41 23 41 12z m605 -14 c10 -11 16 -20 13 -20 -3 0 -13 9 -23 20 -10 11
-16 20 -13 20 3 0 13 -9 23 -20z m1835 -34 c0 -2 -7 -7 -16 -10 -8 -3 -12 -2
-9 4 6 10 25 14 25 6z m-600 -9 c0 -2 -12 -14 -27 -28 l-28 -24 24 28 c23 25
31 32 31 24z m-1815 -41 c12 -11 11 -17 -1 -35 -15 -20 -14 -21 20 -21 29 0
36 -4 36 -19 0 -11 -4 -23 -10 -26 -22 -14 -10 -68 27 -117 34 -48 35 -50 12
-43 -40 13 -94 42 -128 70 -36 31 -41 72 -15 144 23 68 32 75 59 47z m1553
-11 c-3 -3 -9 2 -12 12 -6 14 -5 15 5 6 7 -7 10 -15 7 -18z m782 11 c0 -2 -7
-7 -16 -10 -8 -3 -12 -2 -9 4 6 10 25 14 25 6z m-1911 -32 c14 -12 -19 -1 -35
12 -18 14 -18 14 6 3 14 -6 27 -13 29 -15z m1871 12 c0 -2 -7 -7 -16 -10 -8
-3 -12 -2 -9 4 6 10 25 14 25 6z m-2250 -10 c0 -2 -7 -6 -15 -10 -8 -3 -15 -1
-15 4 0 6 7 10 15 10 8 0 15 -2 15 -4z m1740 0 c0 -2 -8 -10 -17 -17 -16 -13
-17 -12 -4 4 13 16 21 21 21 13z m-811 -9 c-2 -1 -15 -11 -29 -22 l-25 -20 19
23 c11 12 24 22 29 22 6 0 8 -1 6 -3z m681 -11 c0 -2 -8 -10 -17 -17 -16 -13
-17 -12 -4 4 13 16 21 21 21 13z m-1580 -56 c0 -5 -5 -10 -11 -10 -5 0 -7 5
-4 10 3 6 8 10 11 10 2 0 4 -4 4 -10z m1630 -24 c0 -2 -8 -10 -17 -17 -16 -13
-17 -12 -4 4 13 16 21 21 21 13z m-30 -40 c0 -2 -8 -10 -17 -17 -16 -13 -17
-12 -4 4 13 16 21 21 21 13z m-1503 -151 c0 -8 -4 -12 -9 -9 -5 3 -6 10 -3 15
9 13 12 11 12 -6z m430 -31 c-3 -3 -12 -4 -19 -1 -8 3 -5 6 6 6 11 1 17 -2 13
-5z m1088 -74 c-3 -5 -12 -10 -18 -10 -7 0 -6 4 3 10 19 12 23 12 15 0z
m-1424 -27 c13 -16 12 -17 -3 -4 -10 7 -18 15 -18 17 0 8 8 3 21 -13z m924
-213 c-3 -5 -12 -10 -18 -10 -7 0 -6 4 3 10 19 12 23 12 15 0z"/>
<path d="M1605 3740 c-3 -5 -1 -10 4 -10 6 0 11 5 11 10 0 6 -2 10 -4 10 -3 0
-8 -4 -11 -10z"/>
<path d="M2525 3480 c-8 -13 3 -30 21 -30 18 0 18 14 0 29 -10 8 -16 9 -21 1z"/>
<path d="M1876 3448 c-19 -27 -21 -42 -4 -32 17 11 100 5 116 -8 6 -6 12 -21
12 -33 0 -18 -7 -25 -29 -30 -18 -4 -31 -14 -34 -27 -6 -21 -25 -22 -69 -3
-16 6 -18 1 -18 -44 0 -28 0 -54 -1 -58 0 -4 4 -9 9 -11 5 -1 7 9 5 23 -6 27
14 36 23 10 5 -12 27 -15 109 -15 86 0 116 4 173 25 71 25 108 25 98 -2 -3 -8
-6 -29 -6 -47 0 -20 -10 -47 -25 -67 -14 -19 -28 -41 -31 -49 -4 -11 -17 -14
-55 -11 -29 2 -56 -2 -62 -8 -21 -21 -80 -8 -141 32 -28 18 -65 60 -66 75 0 6
-7 12 -15 12 -42 0 41 -96 112 -131 53 -26 203 -41 203 -20 0 6 12 11 26 11
21 0 25 4 21 20 -3 10 -2 20 2 22 3 2 16 17 29 35 15 23 22 47 22 82 0 48 1
50 38 62 25 9 31 14 19 17 -10 2 -24 -2 -32 -8 -19 -16 -30 -7 -60 48 -29 54
-112 116 -184 138 -25 8 -74 14 -108 14 -53 0 -64 -3 -77 -22z"/>
<path d="M2531 3415 c9 -11 19 -29 24 -40 5 -14 9 -16 12 -6 3 7 -7 25 -23 40
-15 14 -21 17 -13 6z"/>
<path d="M1880 3380 c8 -5 26 -10 40 -10 20 0 22 2 10 10 -8 5 -26 10 -40 10
-20 0 -22 -2 -10 -10z"/>
<path d="M2653 3369 c-11 -5 -1 -8 30 -8 26 -1 47 4 47 9 0 11 -47 10 -77 -1z"/>
<path d="M2738 3323 c7 -3 16 -2 19 1 4 3 -2 6 -13 5 -11 0 -14 -3 -6 -6z"/>
<path d="M2165 3210 l-50 -18 42 -1 c23 -1 45 4 48 10 4 6 17 14 29 19 44 18
-17 9 -69 -10z"/>
<path d="M1993 3183 c20 -2 54 -2 75 0 20 2 3 4 -38 4 -41 0 -58 -2 -37 -4z"/>
<path d="M2330 2833 c0 -11 108 -38 117 -30 8 9 -32 26 -76 33 -24 4 -41 3
-41 -3z"/>
<path d="M2604 2705 c-3 -8 -27 -28 -52 -45 -46 -31 -49 -31 -137 -26 -49 3
-107 8 -127 12 -23 4 -38 2 -38 -4 0 -21 214 -40 269 -23 35 10 111 74 111 92
0 15 -20 10 -26 -6z"/>
<path d="M1417 1543 c-15 -2 -34 -15 -42 -27 -9 -13 -33 -28 -56 -35 -27 -8
-63 -35 -113 -84 -77 -77 -171 -185 -199 -229 -9 -15 -37 -50 -62 -78 -25 -28
-45 -57 -45 -65 0 -8 -4 -15 -9 -15 -7 0 -32 -54 -36 -80 0 -3 -9 -19 -18 -37
-9 -18 -17 -41 -17 -52 0 -21 -27 -89 -65 -164 -14 -27 -25 -55 -25 -63 0 -7
-11 -23 -24 -36 -14 -13 -27 -36 -30 -52 -3 -16 -24 -68 -46 -115 -22 -47 -42
-95 -45 -106 -6 -31 -54 -166 -75 -211 -27 -60 -36 -98 -21 -93 15 5 60 110
102 238 17 53 46 126 64 162 18 37 36 81 40 99 4 17 16 41 26 51 11 11 29 45
41 77 11 31 26 64 33 72 7 8 22 47 35 85 12 39 31 89 41 113 11 23 19 49 19
57 0 7 11 27 25 43 14 17 25 34 25 39 0 8 42 62 115 150 19 23 35 46 35 51 0
14 203 212 218 212 19 0 70 28 93 51 12 12 33 19 55 19 24 0 34 4 32 13 -5 13
-28 17 -71 10z"/>
</g>
</svg>
